<svg version="1.1" id="Layer_1" xmlns="http://www.w3.org/2000/svg" xmlns:xlink="http://www.w3.org/1999/xlink" x="0px" y="0px"
	 width="100%" viewBox="0 0 202 199" enable-background="new 0 0 202 199" xml:space="preserve">
<path fill="#FDFEFE" opacity="1.000000" stroke="none" 
	d="
M114.000000,200.000000 
	C76.023392,200.000000 38.546783,200.000000 1.035087,200.000000 
	C1.035087,133.731445 1.035087,67.462875 1.035087,1.097151 
	C68.226440,1.097151 135.453079,1.097151 202.839844,1.097151 
	C202.839844,67.333023 202.839844,133.666473 202.839844,200.000000 
	C173.463165,200.000000 143.981583,200.000000 114.000000,200.000000 
M175.268265,112.341110 
	C175.268265,112.341110 175.383835,112.724678 175.071457,113.491211 
	C175.141296,116.305908 175.211121,119.120598 174.747665,122.089386 
	C174.504639,122.358154 174.261597,122.626923 173.261063,123.002197 
	C172.572342,126.654762 171.883621,130.307327 170.488312,134.047256 
	C170.251999,134.068985 170.015671,134.090714 169.079758,133.834351 
	C167.544434,136.817596 166.009125,139.800842 163.907349,142.822098 
	C162.903702,143.156799 161.900040,143.491516 160.450104,144.366821 
	C159.495712,145.472061 158.396973,146.484360 157.614258,147.700119 
	C155.355377,151.208786 155.448639,154.709641 158.285522,158.868851 
	C158.440872,159.101715 158.596237,159.334564 158.705353,159.934372 
	C158.618149,160.166824 158.499771,160.382126 158.102264,161.216400 
	C158.023209,161.662537 157.944153,162.108673 157.048645,162.713211 
	C154.663727,163.255600 152.278824,163.797989 149.896347,163.591949 
	C155.536331,158.239395 156.022766,156.353989 152.994278,150.857971 
	C150.295441,153.375076 147.641464,155.850311 144.269974,158.034927 
	C138.088684,158.652069 134.997818,162.710266 133.389496,168.151184 
	C133.171112,168.889984 134.420990,170.062775 135.431000,171.491898 
	C135.324097,171.674423 135.217194,171.856949 134.385895,172.058243 
	C134.900177,172.764450 135.414474,173.470642 136.358719,174.745560 
	C143.642365,178.485245 152.865692,175.889465 152.863785,171.616989 
	C157.378250,169.196075 161.247711,167.121033 165.803345,164.942307 
	C166.163559,163.893173 166.523758,162.844055 167.489365,161.460297 
	C170.511948,159.133087 173.534546,156.805878 176.557129,154.478668 
	C176.230957,154.014999 175.904770,153.551346 175.578583,153.087677 
	C171.422272,153.480057 167.265945,153.872452 163.363052,153.469376 
	C163.362259,153.192612 163.361481,152.915863 163.571671,152.002716 
	C163.753983,151.358215 163.936295,150.713699 165.037033,149.996277 
	C166.262833,150.041641 167.488647,150.087006 168.592972,150.793991 
	C169.115204,151.088593 169.611877,151.575317 170.163559,151.648773 
	C177.746368,152.658218 181.570969,147.925644 185.196152,141.908081 
	C185.082703,140.851944 184.969269,139.795792 185.236832,138.190811 
	C189.996170,133.039932 190.757141,129.848480 188.788086,125.839005 
	C193.069412,121.700821 193.809967,119.139526 192.194153,113.980164 
	C190.476196,114.671776 188.761169,115.362221 186.228088,115.632149 
	C189.542206,108.231903 189.211197,105.480614 183.643677,100.301224 
	C182.629196,105.115639 181.737183,109.348869 180.170746,114.139252 
	C179.096695,113.345207 178.022629,112.551170 176.968552,111.233276 
	C176.508316,110.987991 176.048096,110.742706 175.587875,110.497421 
	C175.537003,110.990608 175.486145,111.483795 175.268265,112.341110 
M34.505974,134.047226 
	C34.270962,134.017685 34.035954,133.988144 33.928394,133.098755 
	C32.945656,129.699509 31.962919,126.300255 30.715483,122.429741 
	C30.396646,122.272224 30.077808,122.114708 29.977993,121.078491 
	C29.953529,118.105293 29.929064,115.132103 30.010307,111.564407 
	C29.320139,111.641899 28.629972,111.719391 27.412062,112.428352 
	C26.261610,112.821732 25.111156,113.215111 23.411482,112.794434 
	C22.811359,108.781975 22.211237,104.769524 21.428974,99.539261 
	C14.965529,107.466423 14.919410,109.647118 20.047794,117.540520 
	C20.016706,118.050934 19.985619,118.561340 19.145794,118.631500 
	C16.891283,116.751801 14.636772,114.872101 12.382262,112.992401 
	C11.761885,113.441223 11.141507,113.890053 10.521130,114.338875 
	C12.414587,118.558380 14.308044,122.777885 16.021313,127.428200 
	C16.021313,127.428200 15.951187,127.889877 15.230192,127.958290 
	C14.417678,132.785049 18.054930,137.806351 23.940338,140.840363 
	C23.935255,141.104401 23.930174,141.368439 23.206350,141.555740 
	C22.317669,141.457809 21.428988,141.359863 19.653402,141.164185 
	C21.843369,144.239319 23.288033,146.897827 25.322910,148.979340 
	C28.466070,152.194550 33.693031,152.521866 37.191017,150.003845 
	C38.419144,150.026321 39.647266,150.048798 41.087322,150.936081 
	C41.052647,151.962173 41.017971,152.988266 40.425774,154.783676 
	C36.718708,154.134171 33.011646,153.484665 28.502645,152.694656 
	C29.259708,154.302902 29.430191,154.735046 29.656643,155.135544 
	C32.805397,160.704498 38.473400,161.650757 43.243420,163.062592 
	C41.847546,163.356598 40.451672,163.650604 38.255726,164.113144 
	C43.220158,166.883148 46.220001,171.509903 51.971500,171.672607 
	C53.278229,175.093979 61.281277,178.027222 65.420250,176.273087 
	C67.808434,175.260925 71.158081,174.841858 71.138161,170.415100 
	C71.382332,169.778503 71.964417,169.048889 71.818726,168.519608 
	C70.255424,162.840714 66.761711,159.025162 60.493252,157.194458 
	C59.709358,157.121796 58.925461,157.049149 57.697590,156.477493 
	C55.824299,154.974365 53.951004,153.471252 51.808422,151.422150 
	C51.342831,151.624817 50.877239,151.827484 50.288223,152.895996 
	C50.310017,154.936905 50.331810,156.977829 50.114632,159.499115 
	C50.408981,159.668381 50.703327,159.837662 51.200993,160.637283 
	C52.535160,161.692917 53.869331,162.748566 54.777557,164.311584 
	C54.650723,164.492355 54.523891,164.673111 53.638443,164.687088 
	C51.108246,164.082916 48.578049,163.478745 46.002789,162.173325 
	C45.993973,160.754608 45.985157,159.335907 46.755428,157.770767 
	C50.065220,153.234100 48.703896,147.897827 44.058125,143.271271 
	C42.877369,143.112732 41.696609,142.954178 40.473541,142.000031 
	C39.637974,138.758377 39.634441,134.962021 34.505974,134.047226 
M99.671959,189.671661 
	C100.044601,186.965958 100.417252,184.260269 101.540062,181.681305 
	C102.045631,181.691986 102.551193,181.702667 103.679924,182.210419 
	C109.433128,182.865082 115.175667,183.709702 120.947433,184.033661 
	C122.299904,184.109543 123.751282,182.423126 125.157150,181.547501 
	C123.918518,180.678024 122.760406,179.649765 121.424431,178.972229 
	C118.674324,177.577560 115.829163,176.370331 113.153244,174.242920 
	C112.786385,170.492599 112.419525,166.742294 112.846817,162.915298 
	C113.985489,162.674789 115.117172,162.392807 116.263832,162.199783 
	C150.401001,156.453506 177.274994,123.975098 173.220032,87.028534 
	C169.700363,54.959301 140.631836,27.283739 107.750473,25.466471 
	C107.524391,24.492729 107.298309,23.518988 107.748146,22.119480 
	C109.840691,16.422493 108.320480,12.755790 102.951736,10.550662 
	C94.398003,7.037343 85.722557,13.410502 85.910484,23.668304 
	C86.174095,25.016977 86.437706,26.365650 85.911255,27.758917 
	C50.445614,34.118793 24.826874,72.567856 32.692200,107.631027 
	C39.309444,137.130325 64.086784,160.344604 91.318680,163.118912 
	C91.225906,168.405457 91.133133,173.692001 90.702599,179.616684 
	C90.112648,180.787872 89.397209,181.914047 88.957726,183.139206 
	C87.898209,186.092804 86.448456,189.483841 89.793312,191.623322 
	C92.946152,193.639984 96.368141,193.114410 99.671959,189.671661 
z"/>
<path fill="#4FC5E0" opacity="1.000000" stroke="none" 
	d="
M107.995735,26.025433 
	C140.631836,27.283739 169.700363,54.959301 173.220032,87.028534 
	C177.274994,123.975098 150.401001,156.453506 116.263832,162.199783 
	C115.117172,162.392807 113.985489,162.674789 112.378983,162.491501 
	C113.916687,139.711807 115.922234,117.355919 117.978973,94.564781 
	C117.764145,89.155876 117.498131,84.182205 117.622147,79.209595 
	C121.609337,78.939278 125.943253,82.241379 128.720886,76.749344 
	C128.476990,74.297279 128.036911,72.139168 127.503304,69.561447 
	C127.254250,68.901695 127.098732,68.661552 126.581741,68.159210 
	C127.434052,66.973045 128.647827,66.049080 129.861603,65.125114 
	C130.566620,66.413422 131.625183,67.631882 131.896683,69.005852 
	C132.343018,71.264786 132.279312,73.624496 132.091644,76.129715 
	C130.499008,81.855164 129.245377,87.392609 127.717453,93.212936 
	C126.204750,99.865623 124.966347,106.235420 123.331543,112.657059 
	C121.868095,112.743668 120.801041,112.778442 119.452568,112.881424 
	C119.346039,113.703293 119.520927,114.456970 119.802162,115.541901 
	C123.561371,122.396927 129.608948,122.682968 136.394852,122.066605 
	C138.600021,121.421944 140.418213,120.764534 142.336578,119.861206 
	C142.368332,119.452034 142.299911,119.288765 142.266754,119.146545 
	C142.302017,119.167595 142.384155,119.166809 142.743591,119.252258 
	C144.383102,117.598869 145.663193,115.860031 146.943268,114.121193 
	C145.967224,113.799416 144.991196,113.477646 143.699005,113.087677 
	C142.958282,112.947388 142.533722,112.875298 142.090256,112.380630 
	C140.717224,104.296661 139.363083,96.635269 137.973755,88.693512 
	C137.528732,88.093315 137.118881,87.773491 136.709030,87.453659 
	C136.753189,87.942535 136.797363,88.431419 136.868301,89.362000 
	C137.932220,97.917297 138.969345,106.030907 139.668060,113.975616 
	C137.500122,113.217552 135.670624,112.628387 133.902863,111.570686 
	C134.024628,102.737442 134.084656,94.372734 134.528320,85.989883 
	C135.546555,84.612785 136.636856,83.277245 136.708160,81.889343 
	C136.813019,79.848366 136.190521,77.770004 135.671829,75.367844 
	C135.311356,73.900925 135.226028,72.759056 134.990448,71.649094 
	C134.032837,67.137070 135.600922,65.144432 140.393890,65.690422 
	C141.779297,65.848244 143.282822,64.969025 144.732193,64.565239 
	C144.702866,63.957596 144.673523,63.349957 144.644196,62.742317 
	C137.953568,62.189034 131.262924,61.635754 124.313904,60.868126 
	C123.147903,58.697132 122.055580,56.803154 121.366592,54.772343 
	C119.113228,48.130550 115.539192,42.903030 107.822464,41.346603 
	C106.724075,41.120090 105.890396,41.054176 104.859489,40.695915 
	C103.160019,39.584843 101.518677,38.944077 100.188934,37.904659 
	C98.308472,36.434772 96.658127,34.670479 95.294304,33.050354 
	C104.204117,35.949268 104.201866,35.948444 107.355408,27.339952 
	C107.522194,26.884684 107.780197,26.462839 107.995735,26.025433 
z"/>
<path fill="#4FC5E0" opacity="1.000000" stroke="none" 
	d="
M91.022491,162.281601 
	C64.086784,160.344604 39.309444,137.130325 32.692200,107.631027 
	C24.826874,72.567856 50.445614,34.118793 86.627457,27.829611 
	C87.562538,27.938673 87.781425,27.977041 88.000702,28.401775 
	C87.904076,32.176563 89.420715,34.036060 92.985115,34.369141 
	C92.694702,36.407753 92.357841,38.076569 91.692062,39.809494 
	C90.924118,39.957520 90.485092,40.041435 89.888390,39.802151 
	C84.663643,35.834328 85.296051,40.016514 84.734802,43.142181 
	C83.022514,44.045681 81.575508,44.730793 80.050018,45.013489 
	C77.607201,41.446800 75.286125,42.805664 73.695724,45.133953 
	C70.510117,49.797581 73.551796,57.715240 79.282700,60.184669 
	C79.427132,60.367218 79.388222,60.831139 78.962387,60.958282 
	C76.736809,61.367542 74.933098,61.904316 73.138199,61.876320 
	C69.865631,61.825272 69.573547,63.483322 70.292267,66.455139 
	C70.157692,69.602562 70.068077,72.302681 69.994591,74.999275 
	C70.010719,74.995758 70.016182,74.963203 69.738708,75.144890 
	C69.318947,76.184761 69.176651,77.042946 69.019440,78.286491 
	C68.667191,80.413811 68.329865,82.155777 67.714378,84.186455 
	C65.548851,93.863075 63.661476,103.250984 61.386086,112.679184 
	C56.086384,112.907661 57.909241,115.716682 59.427868,117.586227 
	C63.147217,122.165016 68.407402,122.737846 74.236809,122.456215 
	C82.745712,120.698685 84.772316,118.949554 84.833931,113.638374 
	C83.562103,113.143364 82.253807,112.634155 80.958176,111.742142 
	C80.351944,110.660187 79.733055,109.961021 79.114159,109.261864 
	C78.764832,110.224556 78.415512,111.187248 77.948952,112.400169 
	C77.247055,113.058792 76.662392,113.467178 75.863480,113.605133 
	C74.402405,112.901070 73.155571,112.467445 71.973007,111.565865 
	C72.112740,101.075409 72.188217,91.052925 72.596657,81.013451 
	C76.839653,79.112282 73.745033,77.548676 72.887360,75.581444 
	C72.693001,72.498550 72.307266,69.725670 72.309616,66.802338 
	C75.702141,66.359039 78.706581,66.066193 82.010727,65.946259 
	C82.945190,67.587097 83.579948,69.055031 84.071396,70.877815 
	C82.577019,74.359123 83.687271,75.893265 87.290802,76.256042 
	C87.865189,81.869041 88.162758,87.222000 88.450005,92.575523 
	C88.581367,95.023781 87.028572,98.059914 90.895065,99.414101 
	C90.994026,99.605705 91.292419,99.917122 91.248978,100.387924 
	C91.402130,119.570259 91.620796,138.281616 91.759232,156.993561 
	C91.772263,158.754333 91.280098,160.518829 91.022491,162.281601 
M77.202278,100.641800 
	C77.501770,99.323616 77.801262,98.005440 78.100761,96.687256 
	C77.432999,96.648117 76.765236,96.608978 76.097473,96.569839 
	C76.248901,97.864075 76.400330,99.158310 77.202278,100.641800 
M78.852013,106.410332 
	C78.852013,105.089333 78.852013,103.768341 78.852013,102.447342 
	C78.200066,102.565872 77.548111,102.684402 76.896164,102.802933 
	C77.332680,104.084900 77.769203,105.366859 78.852013,106.410332 
M75.255692,85.451935 
	C75.039795,86.464638 74.823898,87.477341 74.608002,88.490044 
	C75.192673,88.482491 75.777351,88.474945 76.362022,88.467392 
	C76.173843,87.591537 75.985672,86.715675 75.255692,85.451935 
M76.925430,92.689552 
	C76.411140,92.425125 75.896858,92.160698 75.382568,91.896271 
	C75.385811,92.646271 75.389053,93.396278 75.392296,94.146271 
	C75.904625,93.877785 76.416954,93.609291 76.925430,92.689552 
z"/>
<path fill="#104956" opacity="1.000000" stroke="none" 
	d="
M91.170586,162.700256 
	C91.280098,160.518829 91.772263,158.754333 91.759232,156.993561 
	C91.620796,138.281616 91.402130,119.570259 91.660324,100.396881 
	C96.107071,98.642914 100.099022,97.350815 104.305740,95.939156 
	C104.796135,95.609413 104.960327,95.333015 105.006821,94.995514 
	C105.000549,95.000633 104.990707,95.013504 105.304199,94.891785 
	C107.249451,92.992195 108.881218,91.214317 110.582390,89.360832 
	C111.482620,90.344406 112.244362,91.176674 113.002991,92.004654 
	C112.999886,92.000366 112.993385,91.992149 112.998398,92.319679 
	C113.672096,93.436073 114.340767,94.224945 115.004417,95.007210 
	C114.999390,95.000610 114.985992,94.990860 115.091736,95.201843 
	C115.582512,95.265938 115.967552,95.119057 116.615097,94.980637 
	C117.227661,94.992737 117.577721,94.996376 117.927788,95.000023 
	C115.922234,117.355919 113.916687,139.711807 111.981903,162.529846 
	C112.419525,166.742294 112.786385,170.492599 112.710510,174.659454 
	C108.636543,176.510071 103.837082,176.322937 103.056763,181.713364 
	C102.551193,181.702667 102.045631,181.691986 101.006256,181.538727 
	C100.300034,181.222702 100.093628,181.113586 99.922516,180.663177 
	C99.034805,178.227951 98.077812,176.198303 97.120819,174.168655 
	C95.412697,175.408234 93.693153,176.632568 92.005249,177.899078 
	C91.626747,178.183105 91.359062,178.614822 91.040359,178.978546 
	C91.133133,173.692001 91.225906,168.405457 91.170586,162.700256 
M108.012184,137.507538 
	C108.012184,127.678444 108.012184,117.849350 108.012184,107.865967 
	C107.029793,118.611404 105.834999,129.251266 105.143356,139.923752 
	C104.441971,150.746552 104.237617,161.601578 103.819733,172.335617 
	C108.179604,170.261002 109.171898,168.810303 109.018616,165.374222 
	C108.619179,156.420547 108.333778,147.461777 108.012184,137.507538 
M98.945938,142.463379 
	C98.490791,133.400696 98.035645,124.338013 97.580498,115.275330 
	C97.342613,115.281311 97.104721,115.287292 96.866837,115.293274 
	C96.866837,130.424561 96.866837,145.555862 96.866837,160.687149 
	C97.115479,160.683716 97.364128,160.680283 97.612770,160.676849 
	C98.056320,154.917130 98.499870,149.157394 98.945938,142.463379 
z"/>
<path fill="#87D6E7" opacity="1.000000" stroke="none" 
	d="
M107.873108,25.745953 
	C107.780197,26.462839 107.522194,26.884684 107.355408,27.339952 
	C104.201866,35.948444 104.204117,35.949268 95.314644,33.033241 
	C94.950096,32.997803 94.988319,33.033733 94.840317,32.758850 
	C94.311333,32.325596 93.930351,32.167221 93.511314,32.054329 
	C93.473259,32.099812 93.365341,32.050621 93.048836,31.932680 
	C92.171074,30.886097 91.609818,29.957453 91.280380,28.835548 
	C91.603836,27.004673 91.695480,25.367062 91.800995,23.374947 
	C93.582909,20.802944 95.137642,18.347467 97.220131,16.480742 
	C98.098557,15.693326 100.641624,15.481327 101.467361,16.166136 
	C103.619141,17.950678 105.239754,20.375692 107.072235,22.545244 
	C107.298309,23.518988 107.524391,24.492729 107.873108,25.745953 
z"/>
<path fill="#205E6B" opacity="1.000000" stroke="none" 
	d="
M107.410187,22.332361 
	C105.239754,20.375692 103.619141,17.950678 101.467361,16.166136 
	C100.641624,15.481327 98.098557,15.693326 97.220131,16.480742 
	C95.137642,18.347467 93.582909,20.802944 91.487404,23.444099 
	C89.450111,23.620398 88.488106,19.172962 86.059982,22.959694 
	C85.722557,13.410502 94.398003,7.037343 102.951736,10.550662 
	C108.320480,12.755790 109.840691,16.422493 107.410187,22.332361 
z"/>
<path fill="#101313" opacity="1.000000" stroke="none" 
	d="
M135.110306,172.039474 
	C135.217194,171.856949 135.324097,171.674423 135.188858,171.249619 
	C134.946716,171.007339 134.964676,171.063644 135.320801,171.253571 
	C136.471313,171.302780 137.265717,171.162048 138.445541,171.046463 
	C139.917496,170.407318 140.990250,169.719070 142.094116,169.084976 
	C143.369492,168.352371 144.672272,167.667480 145.974823,166.974060 
	C145.986496,166.986267 146.013428,167.003769 145.995148,167.395325 
	C145.754379,171.408707 148.174606,171.409653 150.560501,171.598450 
	C150.317886,168.956741 150.105896,166.648560 149.893906,164.340378 
	C152.278824,163.797989 154.663727,163.255600 157.840790,162.795090 
	C160.794357,163.599976 162.955765,164.322983 165.117188,165.045990 
	C161.247711,167.121033 157.378250,169.196075 152.863785,171.616989 
	C152.865692,175.889465 143.642365,178.485245 136.146835,174.155396 
	C135.660080,173.056641 135.385193,172.548065 135.110306,172.039474 
z"/>
<path fill="#0B0F0F" opacity="1.000000" stroke="none" 
	d="
M90.871475,179.297607 
	C91.359062,178.614822 91.626747,178.183105 92.005249,177.899078 
	C93.693153,176.632568 95.412697,175.408234 97.120819,174.168655 
	C98.077812,176.198303 99.034805,178.227951 99.662788,180.956406 
	C99.233345,184.465500 99.132912,187.275787 99.032471,190.086075 
	C96.368141,193.114410 92.946152,193.639984 89.793312,191.623322 
	C86.448456,189.483841 87.898209,186.092804 88.957726,183.139206 
	C89.397209,181.914047 90.112648,180.787872 90.871475,179.297607 
z"/>
<path fill="#0E1111" opacity="1.000000" stroke="none" 
	d="
M46.047859,162.874573 
	C48.578049,163.478745 51.108246,164.082916 54.209541,165.008240 
	C55.153255,165.438950 55.525875,165.548492 55.898491,165.658035 
	C55.666828,165.040100 55.435162,164.422150 55.203499,163.804214 
	C53.869331,162.748566 52.535160,161.692917 51.062992,160.117310 
	C50.816711,159.323318 50.626251,159.130447 50.353607,159.018738 
	C50.331810,156.977829 50.310017,154.936905 50.627937,152.465546 
	C51.337673,152.012772 51.707695,151.990448 52.077713,151.968124 
	C53.951004,153.471252 55.824299,154.974365 57.939697,157.117096 
	C58.522625,159.841858 58.863445,161.927017 58.958282,164.067017 
	C58.458801,164.335571 58.205299,164.549286 57.796177,165.054504 
	C57.400455,165.902878 57.160355,166.459747 56.611130,167.161224 
	C54.836285,168.549591 53.370560,169.793335 51.904831,171.037064 
	C46.220001,171.509903 43.220158,166.883148 38.255726,164.113144 
	C40.451672,163.650604 41.847546,163.356598 43.752907,163.233444 
	C44.857544,163.227722 45.452702,163.051147 46.047859,162.874573 
z"/>
<path fill="#101313" opacity="1.000000" stroke="none" 
	d="
M175.280945,121.935295 
	C175.211121,119.120598 175.141296,116.305908 175.509094,113.170517 
	C176.307510,112.729286 176.668289,112.608734 177.152588,112.289612 
	C177.276123,112.091034 176.948578,111.757133 176.948578,111.757133 
	C178.022629,112.551170 179.096695,113.345207 180.536987,113.842590 
	C180.903229,113.545929 180.935165,113.484444 180.507660,113.733932 
	C180.717224,114.978737 181.354279,115.974052 181.832062,117.325768 
	C181.881775,119.411804 182.090790,121.141434 182.299789,122.871063 
	C183.490799,121.604881 184.700027,120.354897 185.854233,119.056038 
	C186.039093,118.848022 185.977890,118.421356 186.163055,117.832268 
	C186.214096,117.389816 186.132507,117.210876 186.019806,117.022522 
	C185.988693,117.013123 185.988525,117.078133 186.348709,117.127182 
	C186.829681,116.785431 186.950485,116.394638 187.037354,116.002197 
	C187.003433,116.000565 187.046127,116.052666 187.046127,116.052666 
	C188.761169,115.362221 190.476196,114.671776 192.194153,113.980164 
	C193.809967,119.139526 193.069412,121.700821 188.159286,125.960693 
	C186.351532,127.061005 185.172577,128.039642 183.641617,128.994202 
	C182.859573,128.313843 182.429550,127.657570 182.013275,126.658264 
	C181.244080,121.883873 179.895767,125.940063 178.553238,125.961731 
	C177.806656,125.231453 177.313766,124.640198 176.769287,123.779999 
	C176.238785,122.985802 175.759872,122.460548 175.280945,121.935295 
z"/>
<path fill="#101415" opacity="1.000000" stroke="none" 
	d="
M103.368347,181.961884 
	C103.837082,176.322937 108.636543,176.510071 112.645447,175.080978 
	C115.829163,176.370331 118.674324,177.577560 121.424431,178.972229 
	C122.760406,179.649765 123.918518,180.678024 125.157150,181.547501 
	C123.751282,182.423126 122.299904,184.109543 120.947433,184.033661 
	C115.175667,183.709702 109.433128,182.865082 103.368347,181.961884 
z"/>
<path fill="#232626" opacity="1.000000" stroke="none" 
	d="
M145.963165,166.961868 
	C144.672272,167.667480 143.369492,168.352371 142.094116,169.084976 
	C140.990250,169.719070 139.917496,170.407318 138.444016,170.743652 
	C137.702530,170.231003 137.347992,170.046295 137.060471,169.525787 
	C141.261703,166.663986 145.037262,163.878525 144.987473,158.325562 
	C147.641464,155.850311 150.295441,153.375076 152.994278,150.857971 
	C156.022766,156.353989 155.536331,158.239395 149.895126,163.966156 
	C150.105896,166.648560 150.317886,168.956741 150.560501,171.598450 
	C148.174606,171.409653 145.754379,171.408707 146.223495,167.228210 
	C146.501282,166.134186 146.532440,165.598816 146.563614,165.063446 
	C146.448410,165.062119 146.333206,165.060806 146.218002,165.059479 
	C146.133057,165.693604 146.048111,166.327744 145.963165,166.961868 
z"/>
<path fill="#1E2020" opacity="1.000000" stroke="none" 
	d="
M186.030426,118.095772 
	C185.977890,118.421356 186.039093,118.848022 185.854233,119.056038 
	C184.700027,120.354897 183.490799,121.604881 182.299789,122.871063 
	C182.090790,121.141434 181.881775,119.411804 181.853943,116.896973 
	C181.668457,115.235985 181.301819,114.360214 180.935165,113.484444 
	C180.935165,113.484444 180.903229,113.545929 180.874191,113.564011 
	C181.737183,109.348869 182.629196,105.115639 183.643677,100.301224 
	C189.211197,105.480614 189.542206,108.231903 186.637115,115.842407 
	C187.046127,116.052666 187.003433,116.000565 186.622162,115.793503 
	C186.156754,116.083679 186.072632,116.580902 185.988525,117.078133 
	C185.988525,117.078133 185.988693,117.013123 185.770142,116.706825 
	C185.150467,116.789604 184.749329,117.178680 184.348206,117.567764 
	C184.908951,117.743767 185.469696,117.919769 186.030426,118.095772 
z"/>
<path fill="#181A1A" opacity="1.000000" stroke="none" 
	d="
M51.938164,171.354828 
	C53.370560,169.793335 54.836285,168.549591 56.987770,167.338181 
	C58.270256,168.262207 58.739510,169.766129 59.489395,169.922241 
	C61.221802,170.282974 63.090244,169.990341 65.180038,169.975861 
	C65.641068,169.993698 65.825562,169.998367 66.181870,170.384125 
	C67.928047,170.849823 69.502419,170.934433 71.065575,170.998291 
	C71.054367,170.977554 71.009354,170.979630 71.009354,170.979630 
	C71.158081,174.841858 67.808434,175.260925 65.420250,176.273087 
	C61.281277,178.027222 53.278229,175.093979 51.938164,171.354828 
z"/>
<path fill="#212424" opacity="1.000000" stroke="none" 
	d="
M23.960703,113.608482 
	C25.111156,113.215111 26.261610,112.821732 28.012245,112.107437 
	C29.043152,111.910645 29.473875,112.034775 29.904598,112.158905 
	C29.929064,115.132103 29.953529,118.105293 29.566982,121.723473 
	C28.784582,123.597061 28.413197,124.825676 28.020565,126.028885 
	C27.999319,126.003494 28.057556,126.034805 27.818647,125.738449 
	C27.045946,125.936058 26.512152,126.430031 25.601072,126.900085 
	C24.487122,126.931084 23.750458,126.985992 22.814833,126.749619 
	C21.728760,123.996140 20.841648,121.533943 19.954533,119.071754 
	C19.985619,118.561340 20.016706,118.050934 20.245850,116.679543 
	C20.924171,115.544937 21.404440,115.271301 22.101381,115.404007 
	C22.874702,115.028618 23.431349,114.246880 23.985117,113.501724 
	C23.982239,113.538315 23.960703,113.608482 23.960703,113.608482 
z"/>
<path fill="#1A1D1D" opacity="1.000000" stroke="none" 
	d="
M46.025322,162.523956 
	C45.452702,163.051147 44.857544,163.227722 44.113251,163.162476 
	C38.473400,161.650757 32.805397,160.704498 29.656643,155.135544 
	C29.430191,154.735046 29.259708,154.302902 28.502645,152.694656 
	C33.011646,153.484665 36.718708,154.134171 40.713470,154.379333 
	C41.001167,153.974976 40.955265,153.982193 40.744175,154.371490 
	C41.028297,155.033615 41.523506,155.306458 42.061737,155.668610 
	C42.104759,155.757919 42.413174,156.001038 42.655380,156.390961 
	C43.625885,156.860275 44.354187,156.939651 45.061562,156.978180 
	C45.040630,156.937332 44.948990,156.932114 44.751945,157.351776 
	C45.054363,157.865662 45.553818,157.959869 46.052780,158.009338 
	C46.052280,157.964584 45.976341,157.917191 45.976341,157.917191 
	C45.985157,159.335907 45.993973,160.754608 46.025322,162.523956 
z"/>
<path fill="#191B1B" opacity="1.000000" stroke="none" 
	d="
M163.109634,154.264832 
	C167.265945,153.872452 171.422272,153.480057 175.578583,153.087677 
	C175.904770,153.551346 176.230957,154.014999 176.557129,154.478668 
	C173.534546,156.805878 170.511948,159.133087 166.807831,161.541000 
	C163.534256,161.274567 160.942230,160.927414 158.350189,160.580276 
	C158.499771,160.382126 158.618149,160.166824 159.034088,159.629547 
	C160.247345,158.228485 161.131866,157.132248 162.019012,156.024078 
	C162.021606,156.012177 162.041275,155.997742 162.508667,156.075287 
	C162.992966,155.445465 163.009872,154.738098 163.013336,154.015198 
	C162.999908,153.999649 163.012924,154.038666 163.036789,154.095337 
	C163.060654,154.152023 163.109634,154.264832 163.109634,154.264832 
z"/>
<path fill="#151818" opacity="1.000000" stroke="none" 
	d="
M183.993622,129.018280 
	C185.172577,128.039642 186.351532,127.061005 187.831055,126.066330 
	C190.757141,129.848480 189.996170,133.039932 184.664795,138.526230 
	C181.822418,139.322372 179.552078,139.783096 177.200195,140.174576 
	C177.118652,140.105347 176.958832,139.963104 176.910263,139.624191 
	C177.506180,137.853195 178.150665,136.421097 179.028412,134.744568 
	C180.838989,132.672836 182.416306,130.845551 183.993622,129.018280 
z"/>
<path fill="#131515" opacity="1.000000" stroke="none" 
	d="
M36.275940,150.116989 
	C33.693031,152.521866 28.466070,152.194550 25.322910,148.979340 
	C23.288033,146.897827 21.843369,144.239319 19.653402,141.164185 
	C21.428988,141.359863 22.317669,141.457809 23.864128,141.745575 
	C27.311247,143.316833 30.100588,144.698257 32.971886,146.374924 
	C34.127872,147.819107 35.201908,148.968048 36.275940,150.116989 
z"/>
<path fill="#1A1D1D" opacity="1.000000" stroke="none" 
	d="
M66.010056,170.003052 
	C65.825562,169.998367 65.641068,169.993698 65.268196,169.606049 
	C61.809319,166.034546 60.138298,162.268799 60.895004,157.626938 
	C66.761711,159.025162 70.255424,162.840714 71.818726,168.519608 
	C71.964417,169.048889 71.382332,169.778503 71.073761,170.697357 
	C71.009354,170.979630 71.054367,170.977554 70.923721,170.623611 
	C69.198730,170.180801 67.604393,170.091934 66.010056,170.003052 
z"/>
<path fill="#111414" opacity="1.000000" stroke="none" 
	d="
M184.647766,142.080902 
	C181.570969,147.925644 177.746368,152.658218 170.163559,151.648773 
	C169.611877,151.575317 169.115204,151.088593 168.926071,150.356628 
	C170.209412,148.640335 171.159637,147.361420 172.388474,145.876938 
	C176.134277,142.718185 179.924637,140.843323 184.647766,142.080902 
z"/>
<path fill="#151818" opacity="1.000000" stroke="none" 
	d="
M23.988684,140.049576 
	C18.054930,137.806351 14.417678,132.785049 15.746739,128.173172 
	C17.157747,128.246445 18.052206,128.104843 19.071491,128.078506 
	C19.196314,128.193771 19.443642,128.426804 19.592873,128.690186 
	C21.745966,130.668671 23.749826,132.383774 25.819347,134.448776 
	C26.603743,136.520081 27.322474,138.241516 27.960201,140.034439 
	C27.879198,140.105942 27.713734,140.244965 27.339281,140.288666 
	C25.972780,140.238098 24.980732,140.143845 23.988684,140.049576 
z"/>
<path fill="#1E2020" opacity="1.000000" stroke="none" 
	d="
M21.884705,114.997665 
	C21.404440,115.271301 20.924171,115.544937 20.184753,115.914932 
	C14.919410,109.647118 14.965529,107.466423 21.428974,99.539261 
	C22.211237,104.769524 22.811359,108.781975 23.686092,113.201462 
	C23.960703,113.608482 23.982239,113.538315 23.622713,113.388245 
	C22.803692,113.824677 22.344196,114.411171 21.884705,114.997665 
z"/>
<path fill="#151818" opacity="1.000000" stroke="none" 
	d="
M19.550163,118.851624 
	C20.841648,121.533943 21.728760,123.996140 22.691759,127.085083 
	C21.659645,127.950165 20.551643,128.188492 19.443642,128.426804 
	C19.443642,128.426804 19.196314,128.193771 19.064560,127.809525 
	C18.022373,127.282646 17.111937,127.140015 16.201502,126.997391 
	C14.308044,122.777885 12.414587,118.558380 10.521130,114.338875 
	C11.141507,113.890053 11.761885,113.441223 12.382262,112.992401 
	C14.636772,114.872101 16.891283,116.751801 19.550163,118.851624 
z"/>
<path fill="#191C1C" opacity="1.000000" stroke="none" 
	d="
M144.628723,158.180237 
	C145.037262,163.878525 141.261703,166.663986 136.670898,169.590347 
	C135.797791,170.348358 135.381226,170.706009 134.964676,171.063644 
	C134.964676,171.063644 134.946716,171.007339 134.968872,171.020981 
	C134.420990,170.062775 133.171112,168.889984 133.389496,168.151184 
	C134.997818,162.710266 138.088684,158.652069 144.628723,158.180237 
z"/>
<path fill="#1E2121" opacity="1.000000" stroke="none" 
	d="
M164.118591,150.069199 
	C163.936295,150.713699 163.753983,151.358215 163.232697,152.501663 
	C162.845291,153.123016 162.737946,153.257812 162.760544,153.365280 
	C162.809280,153.597183 162.924759,153.815048 163.012924,154.038666 
	C163.012924,154.038666 162.999908,153.999649 162.613693,154.055817 
	C162.165421,154.740585 162.103348,155.369156 162.041275,155.997742 
	C162.041275,155.997742 162.021606,156.012177 161.781677,155.702408 
	C160.363358,156.287338 159.184998,157.182037 158.006622,158.076736 
	C155.448639,154.709641 155.355377,151.208786 157.614258,147.700119 
	C158.396973,146.484360 159.495712,145.472061 161.061874,144.087997 
	C162.488617,145.895844 163.303604,147.982529 164.118591,150.069199 
z"/>
<path fill="#1E2121" opacity="1.000000" stroke="none" 
	d="
M42.413174,156.001038 
	C42.413174,156.001038 42.104759,155.757919 42.400639,155.220108 
	C42.116100,154.448929 41.535686,154.215561 40.955269,153.982178 
	C40.955265,153.982193 41.001167,153.974976 40.992233,153.994659 
	C41.017971,152.988266 41.052647,151.962173 41.122185,150.132904 
	C42.139320,147.495300 43.121593,145.660873 44.103867,143.826447 
	C48.703896,147.897827 50.065220,153.234100 46.365883,157.843979 
	C45.976341,157.917191 46.052280,157.964584 46.092102,157.678024 
	C45.737610,157.238358 45.343300,157.085236 44.948990,156.932114 
	C44.948990,156.932114 45.040630,156.937332 44.848843,156.559235 
	C43.909096,156.121124 43.161133,156.061081 42.413174,156.001038 
z"/>
<path fill="#0C0E0E" opacity="1.000000" stroke="none" 
	d="
M30.980179,122.901009 
	C31.962919,126.300255 32.945656,129.699509 33.589775,133.716217 
	C32.510830,135.875732 31.770506,137.417755 30.932655,139.162933 
	C29.400682,137.090240 28.247215,135.529648 27.062977,133.545563 
	C27.060673,131.425537 27.089138,129.729004 27.392387,127.903275 
	C27.797300,127.194336 27.927429,126.614571 28.057556,126.034805 
	C28.057556,126.034805 27.999319,126.003494 28.328726,125.946976 
	C29.432148,124.893974 30.206163,123.897491 30.980179,122.901009 
z"/>
<path fill="#141717" opacity="1.000000" stroke="none" 
	d="
M164.473801,142.784088 
	C166.009125,139.800842 167.544434,136.817596 169.476440,134.345535 
	C170.185120,138.160492 170.497116,141.464249 170.526138,144.944550 
	C169.113297,146.374573 167.983429,147.628067 166.525040,149.246033 
	C165.697922,146.640381 165.085861,144.712234 164.473801,142.784088 
z"/>
<path fill="#141717" opacity="1.000000" stroke="none" 
	d="
M35.213726,134.110550 
	C39.634441,134.962021 39.637974,138.758377 40.271061,142.719696 
	C39.607483,145.211716 39.146389,146.984070 38.526272,149.367661 
	C36.650700,147.380798 35.420643,146.077744 34.088608,144.417694 
	C34.395657,140.743988 34.804691,137.427277 35.213726,134.110550 
z"/>
<path fill="#DCDCDC" opacity="1.000000" stroke="none" 
	d="
M170.809097,144.768021 
	C170.497116,141.464249 170.185120,138.160492 169.826248,134.484573 
	C170.015671,134.090714 170.251999,134.068985 171.117645,134.192627 
	C172.497284,135.852829 173.247620,137.367661 174.247559,139.386444 
	C175.382507,137.189423 176.198288,135.610214 177.163696,134.253174 
	C177.807281,134.646561 178.301208,134.817780 178.795151,134.989014 
	C178.150665,136.421097 177.506180,137.853195 176.714355,139.663971 
	C176.611008,140.241791 176.654968,140.440933 176.698929,140.640076 
	C176.893204,140.507980 177.087479,140.375900 177.281754,140.243805 
	C179.552078,139.783096 181.822418,139.322372 184.474289,138.800659 
	C184.969269,139.795792 185.082703,140.851944 184.921967,141.994492 
	C179.924637,140.843323 176.134277,142.718185 172.074738,145.775772 
	C171.257965,145.509460 171.033524,145.138748 170.809097,144.768021 
z"/>
<path fill="#0C0E0E" opacity="1.000000" stroke="none" 
	d="
M177.014069,134.031021 
	C176.198288,135.610214 175.382507,137.189423 174.247559,139.386444 
	C173.247620,137.367661 172.497284,135.852829 171.470917,134.148956 
	C171.883621,130.307327 172.572342,126.654762 173.717163,123.249496 
	C174.728943,124.090736 175.284637,124.684692 175.875305,125.677063 
	C176.278229,128.727325 176.646149,131.379181 177.014069,134.031021 
z"/>
<path fill="#DCDCDC" opacity="1.000000" stroke="none" 
	d="
M34.859848,134.078888 
	C34.804691,137.427277 34.395657,140.743988 33.967110,144.723068 
	C33.595047,145.616837 33.242489,145.848267 32.889931,146.079681 
	C30.100588,144.698257 27.311247,143.316833 24.223497,141.783951 
	C23.930174,141.368439 23.935255,141.104401 23.964512,140.444977 
	C24.980732,140.143845 25.972780,140.238098 27.433996,140.461609 
	C28.139910,140.526581 28.376657,140.462311 28.613403,140.398026 
	C28.422672,140.252991 28.231939,140.107971 28.041206,139.962936 
	C27.322474,138.241516 26.603743,136.520081 26.154163,134.414215 
	C26.646793,134.009537 26.870270,133.989304 27.093746,133.969055 
	C28.247215,135.529648 29.400682,137.090240 30.932655,139.162933 
	C31.770506,137.417755 32.510830,135.875732 33.526047,134.146149 
	C34.035954,133.988144 34.270962,134.017685 34.859848,134.078888 
z"/>
<path fill="#E2E3E3" opacity="1.000000" stroke="none" 
	d="
M60.694130,157.410706 
	C60.138298,162.268799 61.809319,166.034546 64.991669,169.592896 
	C63.090244,169.990341 61.221802,170.282974 59.489395,169.922241 
	C58.739510,169.766129 58.270256,168.262207 57.296890,167.193573 
	C57.160355,166.459747 57.400455,165.902878 58.119247,165.130707 
	C58.800049,164.614319 59.002159,164.313232 59.204269,164.012161 
	C58.863445,161.927017 58.522625,159.841858 58.161682,157.366608 
	C58.925461,157.049149 59.709358,157.121796 60.694130,157.410706 
z"/>
<path fill="#A8A9A9" opacity="1.000000" stroke="none" 
	d="
M32.971886,146.374924 
	C33.242489,145.848267 33.595047,145.616837 34.069096,145.080048 
	C35.420643,146.077744 36.650700,147.380798 38.526272,149.367661 
	C39.146389,146.984070 39.607483,145.211716 40.292217,143.117493 
	C41.696609,142.954178 42.877369,143.112732 44.080994,143.548859 
	C43.121593,145.660873 42.139320,147.495300 41.016220,149.700500 
	C39.647266,150.048798 38.419144,150.026321 36.733482,150.060425 
	C35.201908,148.968048 34.127872,147.819107 32.971886,146.374924 
z"/>
<path fill="#A8A9A9" opacity="1.000000" stroke="none" 
	d="
M170.526138,144.944550 
	C171.033524,145.138748 171.257965,145.509460 171.796143,145.981339 
	C171.159637,147.361420 170.209412,148.640335 168.986816,150.025818 
	C167.488647,150.087006 166.262833,150.041641 164.577820,150.032745 
	C163.303604,147.982529 162.488617,145.895844 161.285004,143.817703 
	C161.900040,143.491516 162.903702,143.156799 164.190582,142.803101 
	C165.085861,144.712234 165.697922,146.640381 166.525040,149.246033 
	C167.983429,147.628067 169.113297,146.374573 170.526138,144.944550 
z"/>
<path fill="#73B2C0" opacity="1.000000" stroke="none" 
	d="
M85.985229,23.313999 
	C88.488106,19.172962 89.450111,23.620398 91.473541,23.798603 
	C91.695480,25.367062 91.603836,27.004673 90.979790,28.704748 
	C89.631691,28.516611 88.815994,28.266010 88.000305,28.015411 
	C87.781425,27.977041 87.562538,27.938673 87.022491,27.807314 
	C86.437706,26.365650 86.174095,25.016977 85.985229,23.313999 
z"/>
<path fill="#BDBDBD" opacity="1.000000" stroke="none" 
	d="
M158.226227,160.898346 
	C160.942230,160.927414 163.534256,161.274567 166.505127,161.708313 
	C166.523758,162.844055 166.163559,163.893173 165.460266,164.994141 
	C162.955765,164.322983 160.794357,163.599976 158.249023,162.715881 
	C157.944153,162.108673 158.023209,161.662537 158.226227,160.898346 
z"/>
<path fill="#101415" opacity="1.000000" stroke="none" 
	d="
M99.352219,189.878876 
	C99.132912,187.275787 99.233345,184.465500 99.593506,181.361984 
	C100.093628,181.113586 100.300034,181.222702 100.631172,181.475342 
	C100.417252,184.260269 100.044601,186.965958 99.352219,189.878876 
z"/>
<path fill="#BDBDBD" opacity="1.000000" stroke="none" 
	d="
M158.146072,158.472794 
	C159.184998,157.182037 160.363358,156.287338 161.779068,155.714325 
	C161.131866,157.132248 160.247345,158.228485 159.057190,159.446075 
	C158.596237,159.334564 158.440872,159.101715 158.146072,158.472794 
z"/>
<path fill="#CECECE" opacity="1.000000" stroke="none" 
	d="
M30.847830,122.665375 
	C30.206163,123.897491 29.432148,124.893974 28.349972,125.972366 
	C28.413197,124.825676 28.784582,123.597061 29.457470,122.162827 
	C30.077808,122.114708 30.396646,122.272224 30.847830,122.665375 
z"/>
<path fill="#CECECE" opacity="1.000000" stroke="none" 
	d="
M175.840302,125.278641 
	C175.284637,124.684692 174.728943,124.090736 174.095917,123.196236 
	C174.261597,122.626923 174.504639,122.358154 175.014313,122.012344 
	C175.759872,122.460548 176.238785,122.985802 176.555511,123.939880 
	C176.209000,124.672020 176.024643,124.975334 175.840302,125.278641 
z"/>
<path fill="#181A1A" opacity="1.000000" stroke="none" 
	d="
M16.111408,127.212799 
	C17.111937,127.140015 18.022373,127.282646 18.939737,127.694260 
	C18.052206,128.104843 17.157747,128.246445 16.107237,128.138962 
	C15.951187,127.889877 16.021313,127.428200 16.111408,127.212799 
z"/>
<path fill="#CECECE" opacity="1.000000" stroke="none" 
	d="
M175.435272,111.976982 
	C175.486145,111.483795 175.537003,110.990608 175.587875,110.497421 
	C176.048096,110.742706 176.508316,110.987991 176.958557,111.495209 
	C176.948578,111.757133 177.276123,112.091034 176.800110,112.018524 
	C176.027817,111.956329 175.731552,111.966660 175.435272,111.976982 
z"/>
<path fill="#191C1C" opacity="1.000000" stroke="none" 
	d="
M134.748108,172.048859 
	C135.385193,172.548065 135.660080,173.056641 135.931854,173.871033 
	C135.414474,173.470642 134.900177,172.764450 134.748108,172.048859 
z"/>
<path fill="#CECECE" opacity="1.000000" stroke="none" 
	d="
M29.957453,111.861656 
	C29.473875,112.034775 29.043152,111.910645 28.276115,111.791702 
	C28.629972,111.719391 29.320139,111.641899 29.957453,111.861656 
z"/>
<path fill="#1B1E1E" opacity="1.000000" stroke="none" 
	d="
M51.943069,151.695129 
	C51.707695,151.990448 51.337673,152.012772 50.689651,152.032623 
	C50.877239,151.827484 51.342831,151.624817 51.943069,151.695129 
z"/>
<path fill="#1E2020" opacity="1.000000" stroke="none" 
	d="
M175.351776,112.159042 
	C175.731552,111.966660 176.027817,111.956329 176.676575,112.217094 
	C176.668289,112.608734 176.307510,112.729286 175.665283,112.787254 
	C175.383835,112.724678 175.268265,112.341110 175.351776,112.159042 
z"/>
<path fill="#1B1E1E" opacity="1.000000" stroke="none" 
	d="
M50.234119,159.258926 
	C50.626251,159.130447 50.816711,159.323318 50.961334,159.802139 
	C50.703327,159.837662 50.408981,159.668381 50.234119,159.258926 
z"/>
<path fill="#A8A9A9" opacity="1.000000" stroke="none" 
	d="
M163.036789,154.095337 
	C162.924759,153.815048 162.809280,153.597183 162.760544,153.365280 
	C162.737946,153.257812 162.845291,153.123016 163.127228,152.819870 
	C163.361481,152.915863 163.362259,153.192612 163.236343,153.867096 
	C163.109634,154.264832 163.060654,154.152023 163.036789,154.095337 
z"/>
<path fill="#0F4956" opacity="1.000000" stroke="none" 
	d="
M117.978973,94.564781 
	C117.577721,94.996376 117.227661,94.992737 116.271263,94.949333 
	C115.438622,94.936668 115.212303,94.963768 114.985992,94.990860 
	C114.985992,94.990860 114.999390,95.000610 115.040062,94.648346 
	C114.384949,93.528099 113.689163,92.760124 112.993385,91.992149 
	C112.993385,91.992149 112.999886,92.000366 113.054031,91.618156 
	C112.320633,88.851578 111.533073,86.467216 110.656029,83.811913 
	C109.340431,86.312332 108.372993,88.094681 107.459229,89.904129 
	C106.606728,91.592278 105.811272,93.309235 104.990707,95.013504 
	C104.990707,95.013504 105.000549,95.000633 104.687027,94.968445 
	C103.853279,95.274841 103.333061,95.613426 102.438782,96.002617 
	C98.308517,97.109642 94.552315,98.166069 90.796104,99.222496 
	C87.028572,98.059914 88.581367,95.023781 88.450005,92.575523 
	C88.162758,87.222000 87.865189,81.869041 87.263741,75.910416 
	C86.042007,73.710976 85.128365,72.116966 84.214722,70.522957 
	C83.579948,69.055031 82.945190,67.587097 82.022415,65.640640 
	C80.952339,63.718460 80.170280,62.274799 79.388222,60.831139 
	C79.388222,60.831139 79.427132,60.367218 79.232208,59.806412 
	C78.485008,57.862553 78.033691,56.428177 77.361687,55.105968 
	C75.266624,50.983845 75.177223,47.497242 80.128502,45.415909 
	C81.575508,44.730793 83.022514,44.045681 85.063263,43.080658 
	C87.084991,42.189999 88.512985,41.579243 90.250778,41.120872 
	C92.003700,41.861153 93.446815,42.449047 95.198303,43.177208 
	C97.992584,46.486897 100.478485,49.656315 102.946152,53.140022 
	C104.583305,56.747055 106.210861,60.054882 107.966095,63.293514 
	C108.066971,63.479645 109.208359,63.101860 110.278275,62.979523 
	C111.458954,61.649300 112.788383,60.334885 112.809319,58.999950 
	C112.824844,58.009827 111.140770,56.993050 110.165970,55.598701 
	C110.064354,54.164257 110.010544,53.119259 109.956329,51.772091 
	C109.655151,50.985298 109.354370,50.500668 109.010529,49.681309 
	C108.652512,48.770569 108.337540,48.194557 108.020844,47.501579 
	C108.019119,47.384617 108.020462,47.150661 107.993034,46.815842 
	C107.951675,46.034561 107.937737,45.588093 107.949661,44.690414 
	C108.012733,43.328537 108.049957,42.417873 108.087173,41.507206 
	C115.539192,42.903030 119.113228,48.130550 121.366592,54.772343 
	C122.055580,56.803154 123.147903,58.697132 124.396103,61.305431 
	C125.024887,63.650330 125.313095,65.343567 125.230042,66.924774 
	C121.904053,62.346504 114.571968,60.621071 116.949043,52.843685 
	C113.138153,60.201733 118.744385,63.443901 122.545433,67.354218 
	C123.007027,67.829079 124.557709,67.245270 125.625534,67.334518 
	C125.647415,67.516930 125.306053,67.652931 125.292114,67.969177 
	C125.644279,68.402046 126.010384,68.518677 126.371880,68.494797 
	C126.367271,68.354279 126.644470,68.307167 126.534195,68.682739 
	C126.814888,69.365898 127.205856,69.673477 127.596832,69.981056 
	C128.036911,72.139168 128.476990,74.297279 128.261948,76.758133 
	C125.561783,76.644348 123.506821,75.843903 121.473877,75.896393 
	C117.943047,75.987564 114.425819,76.605911 110.555786,77.043190 
	C108.414413,78.073181 106.620132,79.063202 104.660141,80.144661 
	C107.252464,80.637642 109.054207,80.980286 110.996498,81.349648 
	C110.996498,80.593735 110.996498,79.302422 111.397049,78.010033 
	C113.609100,78.408813 115.420609,78.808678 117.232117,79.208542 
	C117.498131,84.182205 117.764145,89.155876 117.978973,94.564781 
M100.943237,61.792973 
	C99.760872,57.137386 91.974716,48.491978 87.991234,47.803467 
	C88.718529,48.820915 89.247429,49.611843 89.827339,50.363415 
	C92.603760,53.961758 95.393990,57.549438 97.521469,61.638695 
	C96.730446,61.873749 95.939423,62.108803 94.899422,61.749157 
	C94.247368,61.256496 93.595322,60.763836 92.943268,60.271175 
	C92.778908,60.458843 92.614548,60.646511 92.450180,60.834183 
	C93.024429,61.583927 93.598679,62.333672 93.758072,63.726017 
	C92.979126,65.785965 92.200180,67.845917 91.469238,69.778931 
	C95.249840,73.821640 98.673836,71.766098 101.788818,69.630936 
	C105.322258,67.208939 101.202225,65.584625 100.825043,63.544178 
	C100.770592,63.249557 100.900558,62.920849 100.943237,61.792973 
z"/>
<path fill="#E9F8FB" opacity="1.000000" stroke="none" 
	d="
M144.015152,113.155869 
	C144.991196,113.477646 145.967224,113.799416 146.943268,114.121193 
	C145.663193,115.860031 144.383102,117.598869 142.618378,118.933578 
	C139.725021,116.116760 137.626572,117.324074 136.007874,122.053856 
	C129.608948,122.682968 123.561371,122.396927 119.890564,115.146156 
	C119.826408,113.883842 119.780197,113.348534 119.733986,112.813217 
	C120.801041,112.778442 121.868095,112.743668 123.747208,112.761620 
	C125.121216,112.751633 125.683167,112.688904 126.638016,112.690758 
	C129.026474,112.505493 131.022049,112.255661 133.223541,112.012543 
	C133.429489,112.019264 133.841110,112.039223 133.841110,112.039215 
	C135.670624,112.628387 137.500122,113.217552 139.752792,114.180115 
	C140.368591,114.805153 140.622971,114.942795 141.288422,114.971855 
	C142.430222,114.370140 143.222687,113.763000 144.015152,113.155869 
z"/>
<path fill="#58C9E2" opacity="1.000000" stroke="none" 
	d="
M133.017609,112.005829 
	C131.022049,112.255661 129.026474,112.505493 126.575150,112.311310 
	C126.243050,110.905006 126.393822,109.945305 126.485832,108.980003 
	C126.995705,103.630768 127.491287,98.280182 127.991753,92.930054 
	C129.245377,87.392609 130.499008,81.855164 132.271301,76.490005 
	C132.865845,88.443466 132.941727,100.224640 133.017609,112.005829 
z"/>
<path fill="#CCEDF5" opacity="1.000000" stroke="none" 
	d="
M133.223541,112.012543 
	C132.941727,100.224640 132.865845,88.443466 132.610306,76.302002 
	C132.279312,73.624496 132.343018,71.264786 131.896683,69.005852 
	C131.625183,67.631882 130.566620,66.413422 129.861603,65.125114 
	C128.647827,66.049080 127.434052,66.973045 126.513016,68.115067 
	C126.805748,68.333122 126.644470,68.307167 126.644470,68.307167 
	C126.644470,68.307167 126.367271,68.354279 126.373474,68.189545 
	C126.021805,67.900848 125.663925,67.776894 125.306053,67.652931 
	C125.306053,67.652931 125.647415,67.516930 125.613052,67.306686 
	C125.578690,67.096451 125.601295,67.036812 125.601303,67.036812 
	C125.313095,65.343567 125.024887,63.650330 124.654495,61.519783 
	C131.262924,61.635754 137.953568,62.189034 144.644196,62.742317 
	C144.673523,63.349957 144.702866,63.957596 144.732193,64.565239 
	C143.282822,64.969025 141.779297,65.848244 140.393890,65.690422 
	C135.600922,65.144432 134.032837,67.137070 134.990448,71.649094 
	C135.226028,72.759056 135.311356,73.900925 135.310501,75.507530 
	C134.823441,77.677109 134.491669,79.367279 134.110550,81.370697 
	C134.088501,82.104721 134.115784,82.525490 134.092850,83.327477 
	C134.076645,84.475128 134.110657,85.241577 134.144684,86.008018 
	C134.084656,94.372734 134.024628,102.737442 133.902863,111.570694 
	C133.841110,112.039223 133.429489,112.019264 133.223541,112.012543 
z"/>
<path fill="#C3E6EE" opacity="1.000000" stroke="none" 
	d="
M102.964386,52.825733 
	C100.478485,49.656315 97.992584,46.486897 95.097931,42.881020 
	C93.799774,41.544842 92.910378,40.645115 92.020981,39.745388 
	C92.357841,38.076569 92.694702,36.407753 93.051102,34.042900 
	C93.168861,32.914780 93.267105,32.482700 93.365341,32.050621 
	C93.365341,32.050621 93.473259,32.099812 93.700508,32.303280 
	C94.281281,32.682407 94.634796,32.858070 94.988319,33.033733 
	C94.988319,33.033733 94.950096,32.997803 94.929756,33.014915 
	C96.658127,34.670479 98.308472,36.434772 100.188934,37.904659 
	C101.518677,38.944077 103.160019,39.584843 104.830002,41.081314 
	C105.103882,42.519970 105.210014,43.280880 104.915443,44.026268 
	C103.537796,43.794434 102.560852,43.578117 101.583908,43.361805 
	C101.627060,44.385635 101.570190,45.425785 101.734024,46.429924 
	C102.083488,48.571754 102.547379,50.694920 102.964386,52.825733 
z"/>
<path fill="#051619" opacity="1.000000" stroke="none" 
	d="
M110.902893,77.003212 
	C114.425819,76.605911 117.943047,75.987564 121.473877,75.896393 
	C123.506821,75.843903 125.561783,76.644348 128.065765,77.052078 
	C125.943253,82.241379 121.609337,78.939278 117.622147,79.209602 
	C115.420609,78.808678 113.609100,78.408813 111.381454,77.757278 
	C110.944519,77.338142 110.923706,77.170677 110.902893,77.003212 
z"/>
<path fill="#94DDED" opacity="1.000000" stroke="none" 
	d="
M140.939072,114.966438 
	C140.622971,114.942795 140.368591,114.805153 140.091217,114.349007 
	C138.969345,106.030907 137.932220,97.917297 137.161011,89.372971 
	C137.620956,88.952789 137.814957,88.963333 138.008942,88.973877 
	C139.363083,96.635269 140.717224,104.296661 141.827209,112.569237 
	C141.368408,113.775764 141.153748,114.371101 140.939072,114.966438 
z"/>
<path fill="#9EDFEE" opacity="1.000000" stroke="none" 
	d="
M127.717453,93.212936 
	C127.491287,98.280182 126.995705,103.630768 126.485832,108.980003 
	C126.393822,109.945305 126.243050,110.905006 126.182266,112.246735 
	C125.683167,112.688904 125.121216,112.751633 124.143600,112.709793 
	C124.966347,106.235420 126.204750,99.865623 127.717453,93.212936 
z"/>
<path fill="#54C7E1" opacity="1.000000" stroke="none" 
	d="
M134.159882,81.057442 
	C134.491669,79.367279 134.823441,77.677109 135.516556,75.847260 
	C136.190521,77.770004 136.813019,79.848366 136.708160,81.889343 
	C136.636856,83.277245 135.546555,84.612785 134.528305,85.989883 
	C134.110657,85.241577 134.076645,84.475128 134.289154,83.185654 
	C134.410416,82.127563 134.285156,81.592506 134.159882,81.057442 
z"/>
<path fill="#D9F3F9" opacity="1.000000" stroke="none" 
	d="
M136.394852,122.066605 
	C137.626572,117.324074 139.725021,116.116760 142.258942,118.848129 
	C142.384155,119.166809 142.302017,119.167595 142.049133,119.191353 
	C141.942978,119.512451 142.089691,119.809784 142.236404,120.107117 
	C140.418213,120.764534 138.600021,121.421944 136.394852,122.066605 
z"/>
<path fill="#124D5A" opacity="1.000000" stroke="none" 
	d="
M105.316147,44.041794 
	C105.210014,43.280880 105.103882,42.519970 105.027237,41.373657 
	C105.890396,41.054176 106.724075,41.120090 107.822464,41.346603 
	C108.049957,42.417873 108.012733,43.328537 107.668823,44.631966 
	C106.680130,44.697079 105.998138,44.369438 105.316147,44.041794 
z"/>
<path fill="#D9F3F9" opacity="1.000000" stroke="none" 
	d="
M141.288422,114.971855 
	C141.153748,114.371101 141.368408,113.775764 141.846100,112.991814 
	C142.533722,112.875298 142.958282,112.947388 143.699005,113.087669 
	C143.222687,113.763000 142.430222,114.370140 141.288422,114.971855 
z"/>
<path fill="#9EDFEE" opacity="1.000000" stroke="none" 
	d="
M119.452568,112.881424 
	C119.780197,113.348534 119.826408,113.883842 119.784218,114.814896 
	C119.520927,114.456970 119.346039,113.703293 119.452568,112.881424 
z"/>
<path fill="#54C7E1" opacity="1.000000" stroke="none" 
	d="
M137.973755,88.693512 
	C137.814957,88.963333 137.620956,88.952789 137.134247,88.931274 
	C136.797363,88.431419 136.753189,87.942535 136.709030,87.453659 
	C137.118881,87.773491 137.528732,88.093315 137.973755,88.693512 
z"/>
<path fill="#E9F8FB" opacity="1.000000" stroke="none" 
	d="
M142.336578,119.861206 
	C142.089691,119.809784 141.942978,119.512451 142.013870,119.170303 
	C142.299911,119.288765 142.368332,119.452034 142.336578,119.861206 
z"/>
<path fill="#072329" opacity="1.000000" stroke="none" 
	d="
M126.534195,68.682739 
	C126.644470,68.307167 126.805748,68.333122 126.874481,68.377266 
	C127.098732,68.661552 127.254250,68.901695 127.503296,69.561447 
	C127.205856,69.673477 126.814888,69.365898 126.534195,68.682739 
z"/>
<path fill="#54C7E1" opacity="1.000000" stroke="none" 
	d="
M67.992538,83.897736 
	C68.329865,82.155777 68.667191,80.413811 69.317116,78.131767 
	C69.758530,76.715523 69.887360,75.839363 70.016182,74.963203 
	C70.016182,74.963203 70.010719,74.995758 70.277405,75.304298 
	C70.721397,87.752167 70.898705,99.891487 70.793869,112.277542 
	C68.743042,112.576530 66.974358,112.628784 65.131691,112.272415 
	C65.575729,107.796173 66.172020,103.736626 66.592232,99.658928 
	C67.132866,94.412811 67.532288,89.152138 67.992538,83.897736 
z"/>
<path fill="#EAF9FC" opacity="1.000000" stroke="none" 
	d="
M65.205681,112.681038 
	C66.974358,112.628784 68.743042,112.576530 71.001907,112.274940 
	C71.492088,112.025604 71.908745,112.033821 71.908745,112.033829 
	C73.155571,112.467445 74.402405,112.901070 75.712067,113.956512 
	C75.145256,117.159447 74.515617,119.740570 73.885986,122.321686 
	C68.407402,122.737846 63.147217,122.165016 59.427868,117.586227 
	C57.909241,115.716682 56.086384,112.907661 61.808136,112.790894 
	C63.480701,112.801880 64.343193,112.741463 65.205681,112.681038 
z"/>
<path fill="#D2F0F7" opacity="1.000000" stroke="none" 
	d="
M74.236801,122.456215 
	C74.515617,119.740570 75.145256,117.159447 75.926315,114.226952 
	C76.662392,113.467178 77.247055,113.058792 78.307190,112.354416 
	C79.503616,112.080597 80.224556,112.102768 80.945503,112.124939 
	C82.253807,112.634155 83.562103,113.143364 84.833931,113.638374 
	C84.772316,118.949554 82.745712,120.698685 74.236801,122.456215 
z"/>
<path fill="#4FC5DF" opacity="1.000000" stroke="none" 
	d="
M80.050018,45.013489 
	C75.177223,47.497242 75.266624,50.983845 77.361687,55.105968 
	C78.033691,56.428177 78.485008,57.862553 79.087784,59.623863 
	C73.551796,57.715240 70.510117,49.797581 73.695724,45.133953 
	C75.286125,42.805664 77.607201,41.446800 80.050018,45.013489 
z"/>
<path fill="#C3ECF5" opacity="1.000000" stroke="none" 
	d="
M71.973007,111.565857 
	C71.908745,112.033821 71.492088,112.025604 71.284058,112.028214 
	C70.898705,99.891487 70.721397,87.752167 70.261276,75.307816 
	C70.068077,72.302681 70.157692,69.602562 70.492950,66.565483 
	C71.132919,66.469940 71.527222,66.711365 71.921532,66.952789 
	C72.307266,69.725670 72.693001,72.498550 72.687439,75.892899 
	C72.285324,78.019714 72.274513,79.525078 72.263702,81.030434 
	C72.188217,91.052925 72.112740,101.075409 71.973007,111.565857 
z"/>
<path fill="#9BDEEE" opacity="1.000000" stroke="none" 
	d="
M65.131691,112.272415 
	C64.343193,112.741463 63.480701,112.801880 62.196159,112.750595 
	C63.661476,103.250984 65.548851,93.863075 67.714371,84.186455 
	C67.532288,89.152138 67.132866,94.412811 66.592232,99.658928 
	C66.172020,103.736626 65.575729,107.796173 65.131691,112.272415 
z"/>
<path fill="#E1F4F8" opacity="1.000000" stroke="none" 
	d="
M72.309616,66.802338 
	C71.527222,66.711365 71.132919,66.469940 70.537918,66.118164 
	C69.573547,63.483322 69.865631,61.825272 73.138199,61.876320 
	C74.933098,61.904316 76.736809,61.367542 78.962387,60.958282 
	C80.170280,62.274799 80.952339,63.718460 81.722710,65.467728 
	C78.706581,66.066193 75.702141,66.359039 72.309616,66.802338 
z"/>
<path fill="#072329" opacity="1.000000" stroke="none" 
	d="
M90.895065,99.414101 
	C94.552315,98.166069 98.308517,97.109642 102.759476,96.027657 
	C103.666473,96.020966 103.878723,96.039841 104.090981,96.058716 
	C100.099022,97.350815 96.107071,98.642914 91.703766,99.926071 
	C91.292419,99.917122 90.994026,99.605705 90.895065,99.414101 
z"/>
<path fill="#4FC5DF" opacity="1.000000" stroke="none" 
	d="
M93.048836,31.932680 
	C93.267105,32.482700 93.168861,32.914780 93.004639,33.673103 
	C89.420715,34.036060 87.904076,32.176563 88.000702,28.401775 
	C88.815994,28.266010 89.631691,28.516611 90.747971,28.898010 
	C91.609818,29.957453 92.171074,30.886097 93.048836,31.932680 
z"/>
<path fill="#4FC5DF" opacity="1.000000" stroke="none" 
	d="
M89.940971,40.968487 
	C88.512985,41.579243 87.084991,42.189999 85.328545,42.862274 
	C85.296051,40.016514 84.663643,35.834328 89.863533,40.012993 
	C89.996353,40.547039 89.940971,40.968487 89.940971,40.968487 
z"/>
<path fill="#4FC5DF" opacity="1.000000" stroke="none" 
	d="
M84.071396,70.877815 
	C85.128365,72.116966 86.042007,73.710976 86.982712,75.650620 
	C83.687271,75.893265 82.577019,74.359123 84.071396,70.877815 
z"/>
<path fill="#5AC9E2" opacity="1.000000" stroke="none" 
	d="
M76.877014,100.547173 
	C76.400330,99.158310 76.248901,97.864075 76.097473,96.569839 
	C76.765236,96.608978 77.432999,96.648117 78.100761,96.687256 
	C77.801262,98.005440 77.501770,99.323616 76.877014,100.547173 
z"/>
<path fill="#5AC9E2" opacity="1.000000" stroke="none" 
	d="
M72.596664,81.013451 
	C72.274513,79.525078 72.285324,78.019714 72.496056,76.202911 
	C73.745033,77.548676 76.839653,79.112282 72.596664,81.013451 
z"/>
<path fill="#5AC9E2" opacity="1.000000" stroke="none" 
	d="
M78.528870,106.529579 
	C77.769203,105.366859 77.332680,104.084900 76.896164,102.802933 
	C77.548111,102.684402 78.200066,102.565872 78.852013,102.447342 
	C78.852013,103.768341 78.852013,105.089333 78.528870,106.529579 
z"/>
<path fill="#5AC9E2" opacity="1.000000" stroke="none" 
	d="
M75.526596,85.645874 
	C75.985672,86.715675 76.173843,87.591537 76.362022,88.467392 
	C75.777351,88.474945 75.192673,88.482491 74.608002,88.490044 
	C74.823898,87.477341 75.039795,86.464638 75.526596,85.645874 
z"/>
<path fill="#124D5A" opacity="1.000000" stroke="none" 
	d="
M90.250778,41.120872 
	C89.940971,40.968487 89.996353,40.547039 90.021210,40.336197 
	C90.485092,40.041435 90.924118,39.957520 91.692062,39.809494 
	C92.910378,40.645115 93.799774,41.544842 94.789551,42.740753 
	C93.446815,42.449047 92.003700,41.861153 90.250778,41.120872 
z"/>
<path fill="#5AC9E2" opacity="1.000000" stroke="none" 
	d="
M80.958176,111.742142 
	C80.224556,112.102768 79.503616,112.080597 78.424423,112.104187 
	C78.415512,111.187248 78.764832,110.224556 79.114159,109.261864 
	C79.733055,109.961021 80.351944,110.660187 80.958176,111.742142 
z"/>
<path fill="#5AC9E2" opacity="1.000000" stroke="none" 
	d="
M76.927353,93.015175 
	C76.416954,93.609291 75.904625,93.877785 75.392296,94.146271 
	C75.389053,93.396278 75.385811,92.646271 75.382568,91.896271 
	C75.896858,92.160698 76.411140,92.425125 76.927353,93.015175 
z"/>
<path fill="#C3ECF5" opacity="1.000000" stroke="none" 
	d="
M69.738708,75.144890 
	C69.887360,75.839363 69.758530,76.715523 69.332031,77.746407 
	C69.176651,77.042946 69.318947,76.184761 69.738708,75.144890 
z"/>
<path fill="#041214" opacity="1.000000" stroke="none" 
	d="
M108.007538,138.006287 
	C108.333778,147.461777 108.619179,156.420547 109.018616,165.374222 
	C109.171898,168.810303 108.179604,170.261002 103.819733,172.335617 
	C104.237617,161.601578 104.441971,150.746552 105.143356,139.923752 
	C105.834999,129.251266 107.029793,118.611404 108.012184,107.865967 
	C108.012184,117.849350 108.012184,127.678444 108.007538,138.006287 
z"/>
<path fill="#05191D" opacity="1.000000" stroke="none" 
	d="
M98.944679,142.930527 
	C98.499870,149.157394 98.056320,154.917130 97.612770,160.676849 
	C97.364128,160.680283 97.115479,160.683716 96.866837,160.687149 
	C96.866837,145.555862 96.866837,130.424561 96.866837,115.293274 
	C97.104721,115.287292 97.342613,115.281311 97.580498,115.275330 
	C98.035645,124.338013 98.490791,133.400696 98.944679,142.930527 
z"/>
<path fill="#051619" opacity="1.000000" stroke="none" 
	d="
M105.304199,94.891785 
	C105.811272,93.309235 106.606728,91.592278 107.459229,89.904129 
	C108.372993,88.094681 109.340431,86.312332 110.656029,83.811913 
	C111.533073,86.467216 112.320633,88.851578 113.057144,91.622444 
	C112.244362,91.176674 111.482620,90.344406 110.582390,89.360832 
	C108.881218,91.214317 107.249451,92.992195 105.304199,94.891785 
z"/>
<path fill="#051619" opacity="1.000000" stroke="none" 
	d="
M112.998398,92.319679 
	C113.689163,92.760124 114.384949,93.528099 115.045090,94.654938 
	C114.340767,94.224945 113.672096,93.436073 112.998398,92.319679 
z"/>
<path fill="#051619" opacity="1.000000" stroke="none" 
	d="
M104.305740,95.939156 
	C103.878723,96.039841 103.666473,96.020966 103.133530,95.977058 
	C103.333061,95.613426 103.853279,95.274841 104.693298,94.963333 
	C104.960327,95.333015 104.796135,95.609413 104.305740,95.939156 
z"/>
<path fill="#051619" opacity="1.000000" stroke="none" 
	d="
M115.091736,95.201843 
	C115.212303,94.963768 115.438622,94.936668 116.008766,94.940872 
	C115.967552,95.119057 115.582512,95.265938 115.091736,95.201843 
z"/>
<path fill="#4FC5E0" opacity="1.000000" stroke="none" 
	d="
M94.840317,32.758850 
	C94.634796,32.858070 94.281281,32.682407 93.738564,32.257797 
	C93.930351,32.167221 94.311333,32.325596 94.840317,32.758850 
z"/>
<path fill="#FDFEFE" opacity="1.000000" stroke="none" 
	d="
M135.320801,171.253571 
	C135.381226,170.706009 135.797791,170.348358 136.603912,169.926163 
	C137.347992,170.046295 137.702530,170.231003 138.058578,170.718506 
	C137.265717,171.162048 136.471313,171.302780 135.320801,171.253571 
z"/>
<path fill="#FDFEFE" opacity="1.000000" stroke="none" 
	d="
M54.990524,164.057892 
	C55.435162,164.422150 55.666828,165.040100 55.898491,165.658035 
	C55.525875,165.548492 55.153255,165.438950 54.588844,165.091644 
	C54.523891,164.673111 54.650723,164.492355 54.990524,164.057892 
z"/>
<path fill="#1B1E1E" opacity="1.000000" stroke="none" 
	d="
M58.958286,164.067017 
	C59.002159,164.313232 58.800049,164.614319 58.274868,164.839188 
	C58.205299,164.549286 58.458801,164.335571 58.958286,164.067017 
z"/>
<path fill="#E2E3E3" opacity="1.000000" stroke="none" 
	d="
M175.875305,125.677063 
	C176.024643,124.975334 176.209000,124.672020 176.607117,124.208832 
	C177.313766,124.640198 177.806656,125.231453 178.746292,126.263527 
	C180.128540,126.803329 181.064026,126.902313 181.999527,127.001297 
	C182.429550,127.657570 182.859573,128.313843 183.641617,128.994202 
	C182.416306,130.845551 180.838989,132.672836 179.028412,134.744568 
	C178.301208,134.817780 177.807281,134.646561 177.163696,134.253174 
	C176.646149,131.379181 176.278229,128.727325 175.875305,125.677063 
z"/>
<path fill="#1E2020" opacity="1.000000" stroke="none" 
	d="
M182.013275,126.658272 
	C181.064026,126.902313 180.128540,126.803329 178.999985,126.402557 
	C179.895767,125.940063 181.244080,121.883873 182.013275,126.658272 
z"/>
<path fill="#FDFEFE" opacity="1.000000" stroke="none" 
	d="
M180.507660,113.733932 
	C181.301819,114.360214 181.668457,115.235985 182.013214,116.540558 
	C181.354279,115.974052 180.717224,114.978737 180.507660,113.733932 
z"/>
<path fill="#FDFEFE" opacity="1.000000" stroke="none" 
	d="
M186.163071,117.832268 
	C185.469696,117.919769 184.908951,117.743767 184.348206,117.567764 
	C184.749329,117.178680 185.150467,116.789604 185.801270,116.716232 
	C186.132507,117.210876 186.214096,117.389816 186.163071,117.832268 
z"/>
<path fill="#FDFEFE" opacity="1.000000" stroke="none" 
	d="
M186.348709,117.127182 
	C186.072632,116.580902 186.156754,116.083679 186.656067,115.795143 
	C186.950485,116.394638 186.829681,116.785431 186.348709,117.127182 
z"/>
<path fill="#101313" opacity="1.000000" stroke="none" 
	d="
M145.974823,166.974060 
	C146.048111,166.327744 146.133057,165.693604 146.218002,165.059479 
	C146.333206,165.060806 146.448410,165.062119 146.563614,165.063446 
	C146.532440,165.598816 146.501282,166.134186 146.241760,166.836670 
	C146.013428,167.003769 145.986496,166.986267 145.974823,166.974060 
z"/>
<path fill="#FDFEFE" opacity="1.000000" stroke="none" 
	d="
M66.181870,170.384140 
	C67.604393,170.091934 69.198730,170.180801 70.934921,170.644348 
	C69.502419,170.934433 67.928047,170.849823 66.181870,170.384140 
z"/>
<path fill="#E7E7E7" opacity="1.000000" stroke="none" 
	d="
M27.062977,133.545563 
	C26.870270,133.989304 26.646793,134.009537 26.088501,134.064331 
	C23.749826,132.383774 21.745966,130.668671 19.592873,128.690186 
	C20.551643,128.188492 21.659645,127.950165 22.890718,127.376373 
	C23.750458,126.985992 24.487122,126.931084 25.733109,127.138809 
	C26.534155,127.611786 26.825878,127.822121 27.117601,128.032455 
	C27.089138,129.729004 27.060673,131.425537 27.062977,133.545563 
z"/>
<path fill="#FDFEFE" opacity="1.000000" stroke="none" 
	d="
M22.101379,115.404007 
	C22.344196,114.411171 22.803692,113.824677 23.625591,113.351662 
	C23.431349,114.246880 22.874702,115.028618 22.101379,115.404007 
z"/>
<path fill="#CECECE" opacity="1.000000" stroke="none" 
	d="
M27.392385,127.903275 
	C26.825878,127.822121 26.534155,127.611786 26.110394,127.162720 
	C26.512152,126.430031 27.045946,125.936058 27.818647,125.738449 
	C27.927429,126.614571 27.797300,127.194336 27.392385,127.903275 
z"/>
<path fill="#FDFEFE" opacity="1.000000" stroke="none" 
	d="
M42.655380,156.390961 
	C43.161133,156.061081 43.909096,156.121124 44.869774,156.600098 
	C44.354187,156.939651 43.625885,156.860275 42.655380,156.390961 
z"/>
<path fill="#FDFEFE" opacity="1.000000" stroke="none" 
	d="
M44.751945,157.351776 
	C45.343300,157.085236 45.737610,157.238358 46.092598,157.722778 
	C45.553818,157.959869 45.054363,157.865662 44.751945,157.351776 
z"/>
<path fill="#FDFEFE" opacity="1.000000" stroke="none" 
	d="
M40.744179,154.371475 
	C41.535686,154.215561 42.116100,154.448929 42.357616,155.130798 
	C41.523506,155.306458 41.028297,155.033615 40.744179,154.371475 
z"/>
<path fill="#BDBDBD" opacity="1.000000" stroke="none" 
	d="
M162.508667,156.075287 
	C162.103348,155.369156 162.165421,154.740585 162.627121,154.071381 
	C163.009872,154.738098 162.992966,155.445465 162.508667,156.075287 
z"/>
<path fill="#151818" opacity="1.000000" stroke="none" 
	d="
M177.200195,140.174591 
	C177.087479,140.375900 176.893204,140.507980 176.698929,140.640076 
	C176.654968,140.440933 176.611008,140.241791 176.762939,140.002869 
	C176.958832,139.963104 177.118652,140.105347 177.200195,140.174591 
z"/>
<path fill="#151818" opacity="1.000000" stroke="none" 
	d="
M27.960201,140.034439 
	C28.231939,140.107971 28.422672,140.252991 28.613403,140.398026 
	C28.376657,140.462311 28.139910,140.526581 27.808449,140.417908 
	C27.713734,140.244965 27.879198,140.105942 27.960201,140.034439 
z"/>
<path fill="#3596AB" opacity="1.000000" stroke="none" 
	d="
M104.915436,44.026272 
	C105.998138,44.369438 106.680130,44.697079 107.642967,45.083176 
	C107.937737,45.588093 107.951675,46.034561 107.833549,46.834892 
	C107.701492,47.188763 107.613632,47.565342 107.613632,47.565342 
	C107.613632,47.565342 108.022568,47.618546 108.022568,47.618546 
	C108.337540,48.194557 108.652512,48.770569 108.768700,49.828342 
	C109.032181,50.898155 109.494453,51.486206 109.956726,52.074257 
	C110.010544,53.119259 110.064354,54.164257 110.073036,56.029510 
	C109.973763,58.895351 109.919632,60.940937 109.865494,62.986526 
	C109.208359,63.101860 108.066971,63.479645 107.966095,63.293514 
	C106.210861,60.054882 104.583305,56.747055 102.946152,53.140022 
	C102.547379,50.694920 102.083488,48.571754 101.734024,46.429924 
	C101.570190,45.425785 101.627060,44.385635 101.583908,43.361805 
	C102.560852,43.578117 103.537796,43.794434 104.915436,44.026272 
z"/>
<path fill="#81CFDF" opacity="1.000000" stroke="none" 
	d="
M95.148392,62.343849 
	C95.939423,62.108803 96.730446,61.873749 98.192154,61.583298 
	C99.556961,61.887909 100.251068,62.247910 100.945183,62.607914 
	C100.900558,62.920849 100.770592,63.249557 100.825043,63.544178 
	C101.202225,65.584625 105.322258,67.208939 101.788818,69.630936 
	C98.673836,71.766098 95.249840,73.821640 91.469238,69.778931 
	C92.200180,67.845917 92.979126,65.785965 94.176949,63.354755 
	C94.880363,62.856953 95.064552,62.643738 95.148392,62.343849 
z"/>
<path fill="#051619" opacity="1.000000" stroke="none" 
	d="
M100.944214,62.200443 
	C100.251068,62.247910 99.556961,61.887909 98.521088,61.334404 
	C95.393990,57.549438 92.603760,53.961758 89.827339,50.363415 
	C89.247429,49.611843 88.718529,48.820915 87.991234,47.803467 
	C91.974716,48.491978 99.760872,57.137386 100.944214,62.200443 
z"/>
<path fill="#072329" opacity="1.000000" stroke="none" 
	d="
M125.230042,66.924774 
	C125.601295,67.036812 125.578690,67.096451 125.591171,67.124275 
	C124.557709,67.245270 123.007027,67.829079 122.545433,67.354218 
	C118.744385,63.443901 113.138153,60.201733 116.949043,52.843685 
	C114.571968,60.621071 121.904053,62.346504 125.230042,66.924774 
z"/>
<path fill="#124D5A" opacity="1.000000" stroke="none" 
	d="
M110.278275,62.979523 
	C109.919632,60.940937 109.973763,58.895351 110.120834,56.418953 
	C111.140770,56.993050 112.824844,58.009827 112.809319,58.999950 
	C112.788383,60.334885 111.458954,61.649300 110.278275,62.979523 
z"/>
<path fill="#104956" opacity="1.000000" stroke="none" 
	d="
M110.555786,77.043190 
	C110.923706,77.170677 110.944519,77.338142 110.980911,77.758362 
	C110.996498,79.302422 110.996498,80.593735 110.996498,81.349648 
	C109.054207,80.980286 107.252464,80.637642 104.660141,80.144661 
	C106.620132,79.063202 108.414413,78.073181 110.555786,77.043190 
z"/>
<path fill="#124D5A" opacity="1.000000" stroke="none" 
	d="
M95.023911,62.046501 
	C95.064552,62.643738 94.880363,62.856953 94.384377,63.033455 
	C93.598679,62.333672 93.024429,61.583927 92.450180,60.834183 
	C92.614548,60.646511 92.778908,60.458843 92.943268,60.271175 
	C93.595322,60.763836 94.247368,61.256496 95.023911,62.046501 
z"/>
<path fill="#124D5A" opacity="1.000000" stroke="none" 
	d="
M109.956329,51.772095 
	C109.494453,51.486206 109.032181,50.898155 108.811752,50.163071 
	C109.354370,50.500668 109.655151,50.985298 109.956329,51.772095 
z"/>
<path fill="#124D5A" opacity="1.000000" stroke="none" 
	d="
M108.020844,47.501579 
	C108.022568,47.618546 107.613632,47.565342 107.613632,47.565342 
	C107.613632,47.565342 107.701492,47.188763 107.860977,47.169712 
	C108.020462,47.150661 108.019119,47.384617 108.020844,47.501579 
z"/>
<path fill="#072329" opacity="1.000000" stroke="none" 
	d="
M125.292114,67.969177 
	C125.663925,67.776894 126.021805,67.900848 126.378082,68.330063 
	C126.010384,68.518677 125.644279,68.402046 125.292114,67.969177 
z"/>
<path fill="#4FC5E0" opacity="1.000000" stroke="none" 
	d="
M134.110535,81.370697 
	C134.285156,81.592506 134.410416,82.127563 134.339386,82.804443 
	C134.115784,82.525490 134.088501,82.104721 134.110535,81.370697 
z"/>
</svg>